<svg width="179.224" height="30.469" viewBox="0 0 179.224 30.469" xmlns="http://www.w3.org/2000/svg"><g id="svgGroup" stroke-linecap="round" fill-rule="evenodd" font-size="9pt" stroke="#000" stroke-width="0.25mm" fill="#000" style="stroke:#000;stroke-width:0.25mm;fill:#000"><path d="M 89.37 13.696 L 89.37 22.251 A 1.653 1.653 0 0 1 89.358 22.46 Q 89.329 22.685 89.232 22.809 A 0.403 0.403 0 0 1 89.187 22.859 Q 89.02 23.013 88.639 23.026 A 2.122 2.122 0 0 1 88.564 23.027 L 85.547 23.027 Q 85.107 23.027 84.924 22.859 Q 84.741 22.69 84.741 22.251 L 84.741 14.458 A 7.111 7.111 0 0 0 84.699 13.652 Q 84.601 12.794 84.275 12.289 A 1.75 1.75 0 0 0 84.141 12.107 A 1.913 1.913 0 0 0 83.155 11.496 Q 82.789 11.396 82.339 11.396 Q 81.534 11.396 80.982 11.666 A 1.986 1.986 0 0 0 80.647 11.873 A 2.535 2.535 0 0 0 79.818 12.994 A 3.128 3.128 0 0 0 79.761 13.154 L 79.761 22.251 A 1.653 1.653 0 0 1 79.749 22.46 Q 79.72 22.685 79.623 22.809 A 0.403 0.403 0 0 1 79.578 22.859 Q 79.411 23.013 79.03 23.026 A 2.122 2.122 0 0 1 78.955 23.027 L 75.938 23.027 Q 75.498 23.027 75.315 22.859 Q 75.132 22.69 75.132 22.251 L 75.132 14.458 Q 75.132 12.892 74.498 12.157 A 1.829 1.829 0 0 0 74.473 12.129 A 2.177 2.177 0 0 0 72.925 11.402 A 2.975 2.975 0 0 0 72.744 11.396 A 3.346 3.346 0 0 0 72.069 11.461 Q 71.635 11.55 71.3 11.764 A 1.978 1.978 0 0 0 71.118 11.895 A 3.319 3.319 0 0 0 70.166 13.154 L 70.166 22.251 A 1.653 1.653 0 0 1 70.154 22.46 Q 70.125 22.685 70.028 22.809 A 0.403 0.403 0 0 1 69.983 22.859 Q 69.816 23.013 69.435 23.026 A 2.122 2.122 0 0 1 69.36 23.027 L 66.343 23.027 Q 65.903 23.027 65.72 22.859 Q 65.537 22.69 65.537 22.251 L 65.537 9.976 A 1.36 1.36 0 0 1 65.551 9.772 Q 65.583 9.565 65.684 9.434 Q 65.991 9.023 66.423 8.599 Q 66.795 8.234 67.312 7.825 A 16.201 16.201 0 0 1 67.485 7.69 A 0.872 0.872 0 0 1 67.613 7.608 Q 67.736 7.544 67.852 7.544 A 0.434 0.434 0 0 1 67.984 7.566 Q 68.093 7.601 68.218 7.69 A 14.202 14.202 0 0 1 68.756 8.134 Q 69.039 8.38 69.272 8.613 A 7.524 7.524 0 0 1 69.919 9.347 A 6.761 6.761 0 0 1 70.049 9.521 L 70.122 9.521 Q 70.62 8.892 71.675 8.276 A 3.824 3.824 0 0 1 72.572 7.908 Q 73.45 7.661 74.692 7.661 A 9.97 9.97 0 0 1 75.671 7.706 Q 76.652 7.803 77.271 8.111 A 2.506 2.506 0 0 1 77.476 8.225 A 5.572 5.572 0 0 1 78.479 9.013 A 4.805 4.805 0 0 1 78.955 9.565 Q 79.497 8.906 80.632 8.284 Q 81.768 7.661 83.833 7.661 A 9.001 9.001 0 0 1 85.352 7.78 Q 86.171 7.921 86.812 8.227 A 3.796 3.796 0 0 1 88.066 9.17 Q 89.045 10.302 89.289 12.284 A 11.571 11.571 0 0 1 89.37 13.696 Z M 22.837 13.154 L 22.837 22.251 A 1.653 1.653 0 0 1 22.825 22.46 Q 22.796 22.685 22.699 22.809 A 0.403 0.403 0 0 1 22.654 22.859 Q 22.487 23.013 22.106 23.026 A 2.122 2.122 0 0 1 22.031 23.027 L 19.014 23.027 Q 18.574 23.027 18.391 22.859 Q 18.208 22.69 18.208 22.251 L 18.208 2.432 A 1.36 1.36 0 0 1 18.222 2.228 Q 18.254 2.021 18.355 1.89 A 7.027 7.027 0 0 1 18.896 1.267 Q 19.415 0.732 20.156 0.146 Q 20.286 0.054 20.397 0.02 A 0.428 0.428 0 0 1 20.522 0 Q 20.713 0 20.889 0.146 Q 21.43 0.562 21.825 0.934 A 8.074 8.074 0 0 1 21.951 1.055 A 8.331 8.331 0 0 1 22.392 1.521 A 6.479 6.479 0 0 1 22.69 1.89 Q 22.837 2.08 22.837 2.432 L 22.837 9.536 L 22.896 9.536 A 4.573 4.573 0 0 1 23.259 9.116 Q 23.47 8.899 23.73 8.679 A 3.285 3.285 0 0 1 24.245 8.328 Q 24.513 8.178 24.838 8.05 A 6.269 6.269 0 0 1 25.1 7.954 Q 25.723 7.741 26.597 7.683 A 10.451 10.451 0 0 1 27.29 7.661 Q 28.638 7.661 29.883 8.218 Q 31.128 8.774 31.919 10.093 A 4.903 4.903 0 0 1 32.431 11.323 Q 32.588 11.895 32.657 12.574 A 11.18 11.18 0 0 1 32.71 13.696 L 32.71 22.251 A 1.653 1.653 0 0 1 32.698 22.46 Q 32.669 22.685 32.572 22.809 A 0.403 0.403 0 0 1 32.527 22.859 Q 32.36 23.013 31.979 23.026 A 2.122 2.122 0 0 1 31.904 23.027 L 28.887 23.027 Q 28.447 23.027 28.264 22.859 Q 28.081 22.69 28.081 22.251 L 28.081 14.502 A 6.212 6.212 0 0 0 28.028 13.657 Q 27.897 12.705 27.443 12.176 A 1.845 1.845 0 0 0 27.407 12.136 A 2.221 2.221 0 0 0 26.059 11.432 A 3.175 3.175 0 0 0 25.576 11.396 Q 24.434 11.396 23.804 11.895 A 3.258 3.258 0 0 0 22.837 13.154 Z M 7.105 5.654 L 6.401 5.654 A 3.569 3.569 0 0 0 5.956 5.68 Q 5.475 5.741 5.209 5.945 A 0.842 0.842 0 0 0 5.083 6.064 Q 4.768 6.432 4.735 7.27 A 5.143 5.143 0 0 0 4.731 7.471 L 4.731 22.251 A 1.653 1.653 0 0 1 4.719 22.46 Q 4.691 22.685 4.594 22.809 A 0.403 0.403 0 0 1 4.548 22.859 Q 4.381 23.013 4.001 23.026 A 2.122 2.122 0 0 1 3.926 23.027 L 0.806 23.027 Q 0.366 23.027 0.183 22.859 Q 0 22.69 0 22.251 L 0 5.947 A 12.958 12.958 0 0 1 0.026 5.091 Q 0.083 4.244 0.259 3.665 A 3.726 3.726 0 0 1 0.271 3.625 A 2.083 2.083 0 0 1 0.662 2.899 A 1.959 1.959 0 0 1 1.326 2.395 Q 2.035 2.057 3.34 2.025 A 11.379 11.379 0 0 1 3.618 2.021 L 7.105 2.021 Q 11.229 2.021 13.253 3.608 A 5.159 5.159 0 0 1 13.33 3.669 A 5.219 5.219 0 0 1 15.055 6.37 Q 15.305 7.252 15.344 8.316 A 10.912 10.912 0 0 1 15.352 8.716 A 10.028 10.028 0 0 1 15.208 10.461 Q 15.035 11.442 14.651 12.237 A 5.509 5.509 0 0 1 14.29 12.876 Q 13.228 14.487 11.536 15.249 A 8.625 8.625 0 0 1 7.954 16.011 A 1.265 1.265 0 0 1 7.643 15.974 A 0.97 0.97 0 0 1 7.31 15.82 A 3.919 3.919 0 0 1 7.106 15.67 Q 6.9 15.509 6.65 15.278 Q 6.359 15.009 6.016 14.646 A 20.075 20.075 0 0 1 5.801 14.414 A 1.101 1.101 0 0 1 5.716 14.303 Q 5.625 14.164 5.625 14.048 Q 5.625 13.893 5.787 13.698 A 1.344 1.344 0 0 1 5.801 13.682 A 12.885 12.885 0 0 1 6.406 13.041 Q 6.703 12.748 6.981 12.522 A 5.367 5.367 0 0 1 7.456 12.173 A 0.611 0.611 0 0 1 7.621 12.098 Q 7.762 12.056 7.954 12.056 A 2.307 2.307 0 0 0 9.63 11.355 A 2.986 2.986 0 0 0 9.675 11.309 Q 10.372 10.591 10.372 9.02 A 7.314 7.314 0 0 0 10.371 8.892 A 5.893 5.893 0 0 0 10.303 8.011 Q 10.231 7.559 10.082 7.204 A 2.106 2.106 0 0 0 9.485 6.372 Q 8.716 5.739 7.452 5.664 A 5.888 5.888 0 0 0 7.105 5.654 Z M 141.094 23.027 L 137.549 23.027 Q 136.86 23.027 136.831 22.339 A 17.764 17.764 0 0 0 136.729 21.01 Q 136.597 19.819 136.304 18.354 L 128.306 18.354 A 37.922 37.922 0 0 0 128.048 19.986 Q 127.939 20.793 127.884 21.51 A 19.715 19.715 0 0 0 127.837 22.339 A 0.957 0.957 0 0 1 127.785 22.624 Q 127.639 23.027 127.09 23.027 L 123.618 23.027 A 0.744 0.744 0 0 1 123.404 22.998 A 0.599 0.599 0 0 1 123.179 22.874 Q 123.005 22.721 123.017 22.346 A 1.586 1.586 0 0 1 123.018 22.339 Q 123.081 20.942 123.387 19.214 A 35.579 35.579 0 0 1 123.494 18.64 A 47.642 47.642 0 0 1 124.234 15.444 A 54.796 54.796 0 0 1 124.541 14.341 A 62.334 62.334 0 0 1 125.977 9.983 A 50.691 50.691 0 0 1 126.937 7.578 A 40.72 40.72 0 0 1 127.617 6.079 A 27.096 27.096 0 0 1 128.248 4.84 Q 128.769 3.884 129.272 3.179 Q 129.624 2.681 130.012 2.405 A 2.12 2.12 0 0 1 130.173 2.3 A 1.944 1.944 0 0 1 130.743 2.083 Q 130.988 2.029 131.271 2.022 A 3.453 3.453 0 0 1 131.353 2.021 L 133.462 2.021 A 3.071 3.071 0 0 1 133.987 2.064 Q 134.369 2.13 134.663 2.3 A 2.369 2.369 0 0 1 135.103 2.632 Q 135.346 2.86 135.571 3.179 Q 136.186 4.04 136.822 5.28 A 28.236 28.236 0 0 1 137.219 6.086 A 45.795 45.795 0 0 1 138.239 8.414 A 56.506 56.506 0 0 1 138.853 9.99 Q 139.644 12.114 140.281 14.333 A 55.855 55.855 0 0 1 141.079 17.437 A 48.128 48.128 0 0 1 141.328 18.604 A 29.004 29.004 0 0 1 141.62 20.311 Q 141.764 21.353 141.797 22.251 Q 141.809 22.918 141.281 23.012 A 1.073 1.073 0 0 1 141.094 23.027 Z M 149.561 21.797 L 149.502 21.797 L 149.502 28.037 A 1.36 1.36 0 0 1 149.488 28.241 Q 149.456 28.448 149.355 28.579 A 7.027 7.027 0 0 1 148.814 29.202 Q 148.295 29.736 147.554 30.322 Q 147.424 30.415 147.313 30.449 A 0.428 0.428 0 0 1 147.188 30.469 A 0.48 0.48 0 0 1 147.01 30.433 Q 146.946 30.408 146.881 30.365 A 0.976 0.976 0 0 1 146.821 30.322 Q 146.28 29.907 145.885 29.535 A 8.074 8.074 0 0 1 145.759 29.414 A 8.331 8.331 0 0 1 145.318 28.947 A 6.479 6.479 0 0 1 145.02 28.579 Q 144.873 28.389 144.873 28.037 L 144.873 9.976 A 1.36 1.36 0 0 1 144.887 9.772 Q 144.919 9.565 145.02 9.434 Q 145.327 9.023 145.759 8.599 Q 146.131 8.234 146.648 7.825 A 16.201 16.201 0 0 1 146.821 7.69 A 0.765 0.765 0 0 1 146.985 7.593 A 0.582 0.582 0 0 1 147.217 7.544 A 0.56 0.56 0 0 1 147.417 7.583 Q 147.489 7.61 147.563 7.657 A 1.07 1.07 0 0 1 147.612 7.69 A 14.202 14.202 0 0 1 148.15 8.134 Q 148.434 8.38 148.667 8.613 A 7.524 7.524 0 0 1 149.313 9.347 A 6.761 6.761 0 0 1 149.443 9.521 L 149.517 9.521 Q 149.742 9.244 150.182 8.858 A 11.99 11.99 0 0 1 150.278 8.774 Q 150.651 8.455 151.251 8.19 A 7.131 7.131 0 0 1 151.736 7.998 A 5.021 5.021 0 0 1 152.525 7.793 Q 153.251 7.661 154.204 7.661 A 7.84 7.84 0 0 1 155.731 7.802 Q 156.676 7.989 157.425 8.428 A 4.701 4.701 0 0 1 157.727 8.621 Q 159.111 9.58 159.793 11.257 A 9.089 9.089 0 0 1 160.359 13.407 A 12.058 12.058 0 0 1 160.474 15.103 A 11.866 11.866 0 0 1 160.248 17.46 A 9.598 9.598 0 0 1 159.675 19.321 A 7.123 7.123 0 0 1 158.343 21.405 A 6.569 6.569 0 0 1 157.324 22.295 A 5.853 5.853 0 0 1 155.036 23.25 A 8.146 8.146 0 0 1 153.472 23.394 Q 152.285 23.394 151.516 23.123 A 5.59 5.59 0 0 1 150.983 22.905 Q 150.574 22.711 150.286 22.478 A 7.99 7.99 0 0 1 149.973 22.213 Q 149.835 22.088 149.722 21.972 A 3.661 3.661 0 0 1 149.561 21.797 Z M 168.311 21.797 L 168.252 21.797 L 168.252 28.037 A 1.36 1.36 0 0 1 168.238 28.241 Q 168.206 28.448 168.105 28.579 A 7.027 7.027 0 0 1 167.564 29.202 Q 167.045 29.736 166.304 30.322 Q 166.174 30.415 166.063 30.449 A 0.428 0.428 0 0 1 165.938 30.469 A 0.48 0.48 0 0 1 165.76 30.433 Q 165.696 30.408 165.631 30.365 A 0.976 0.976 0 0 1 165.571 30.322 Q 165.03 29.907 164.635 29.535 A 8.074 8.074 0 0 1 164.509 29.414 A 8.331 8.331 0 0 1 164.068 28.947 A 6.479 6.479 0 0 1 163.77 28.579 Q 163.623 28.389 163.623 28.037 L 163.623 9.976 A 1.36 1.36 0 0 1 163.637 9.772 Q 163.669 9.565 163.77 9.434 Q 164.077 9.023 164.509 8.599 Q 164.881 8.234 165.398 7.825 A 16.201 16.201 0 0 1 165.571 7.69 A 0.765 0.765 0 0 1 165.735 7.593 A 0.582 0.582 0 0 1 165.967 7.544 A 0.56 0.56 0 0 1 166.167 7.583 Q 166.239 7.61 166.313 7.657 A 1.07 1.07 0 0 1 166.362 7.69 A 14.202 14.202 0 0 1 166.9 8.134 Q 167.184 8.38 167.417 8.613 A 7.524 7.524 0 0 1 168.063 9.347 A 6.761 6.761 0 0 1 168.193 9.521 L 168.267 9.521 Q 168.492 9.244 168.932 8.858 A 11.99 11.99 0 0 1 169.028 8.774 Q 169.401 8.455 170.001 8.19 A 7.131 7.131 0 0 1 170.486 7.998 A 5.021 5.021 0 0 1 171.275 7.793 Q 172.001 7.661 172.954 7.661 A 7.84 7.84 0 0 1 174.481 7.802 Q 175.426 7.989 176.175 8.428 A 4.701 4.701 0 0 1 176.477 8.621 Q 177.861 9.58 178.543 11.257 A 9.089 9.089 0 0 1 179.109 13.407 A 12.058 12.058 0 0 1 179.224 15.103 A 11.866 11.866 0 0 1 178.998 17.46 A 9.598 9.598 0 0 1 178.425 19.321 A 7.123 7.123 0 0 1 177.093 21.405 A 6.569 6.569 0 0 1 176.074 22.295 A 5.853 5.853 0 0 1 173.786 23.25 A 8.146 8.146 0 0 1 172.222 23.394 Q 171.035 23.394 170.266 23.123 A 5.59 5.59 0 0 1 169.733 22.905 Q 169.324 22.711 169.036 22.478 A 7.99 7.99 0 0 1 168.723 22.213 Q 168.585 22.088 168.472 21.972 A 3.661 3.661 0 0 1 168.311 21.797 Z M 101.807 23.027 L 97.31 23.027 Q 95.801 23.027 95.017 22.646 A 1.969 1.969 0 0 1 93.984 21.468 A 2.538 2.538 0 0 1 93.962 21.401 Q 93.691 20.537 93.691 19.102 L 93.691 5.947 A 12.958 12.958 0 0 1 93.718 5.091 Q 93.774 4.244 93.95 3.665 A 3.726 3.726 0 0 1 93.962 3.625 A 2.083 2.083 0 0 1 94.353 2.899 A 1.959 1.959 0 0 1 95.017 2.395 Q 95.727 2.057 97.031 2.025 A 11.379 11.379 0 0 1 97.31 2.021 L 101.807 2.021 Q 104.956 2.021 107.322 2.959 A 7.301 7.301 0 0 1 111.006 6.13 Q 111.98 7.78 112.234 10.337 A 19.449 19.449 0 0 1 112.324 12.261 A 18.783 18.783 0 0 1 112.168 14.759 Q 112.001 16.003 111.654 17.038 A 8.757 8.757 0 0 1 111.006 18.523 Q 109.688 20.889 107.322 21.958 A 11.753 11.753 0 0 1 104.325 22.837 A 15.932 15.932 0 0 1 101.807 23.027 Z M 49.614 14.063 L 49.614 22.354 A 0.839 0.839 0 0 1 49.578 22.604 A 0.706 0.706 0 0 1 49.46 22.83 A 0.466 0.466 0 0 1 49.249 22.979 Q 49.169 23.009 49.069 23.021 A 1.154 1.154 0 0 1 48.94 23.027 L 46.743 23.027 A 1.424 1.424 0 0 1 46.525 23.011 A 1.072 1.072 0 0 1 46.326 22.961 A 0.693 0.693 0 0 1 46.139 22.857 Q 46.058 22.795 45.981 22.705 L 45.073 21.533 L 44.971 21.533 A 3.809 3.809 0 0 1 43.162 22.954 A 6.346 6.346 0 0 1 41.776 23.309 A 8.583 8.583 0 0 1 40.547 23.394 A 6.217 6.217 0 0 1 39.114 23.237 A 4.229 4.229 0 0 1 37.126 22.185 A 3.981 3.981 0 0 1 35.977 20.062 A 5.901 5.901 0 0 1 35.859 18.853 A 5.269 5.269 0 0 1 36.105 17.232 A 4.889 4.889 0 0 1 36.262 16.809 A 3.621 3.621 0 0 1 36.994 15.72 A 4.946 4.946 0 0 1 37.668 15.139 Q 38.672 14.414 40.481 13.975 Q 41.789 13.657 43.622 13.531 A 34.732 34.732 0 0 1 45.103 13.462 A 4.205 4.205 0 0 0 45.05 12.771 Q 44.915 11.964 44.436 11.543 Q 43.77 10.957 42.437 10.957 Q 41.524 10.957 40.865 11.194 A 2.874 2.874 0 0 0 40.474 11.367 A 31.271 31.271 0 0 0 40.208 11.512 Q 39.807 11.733 39.621 11.855 A 1.628 1.628 0 0 0 39.522 11.924 Q 39.324 12.093 39.045 12.059 A 0.84 0.84 0 0 1 39.023 12.056 A 4.61 4.61 0 0 1 38.562 11.962 A 5.884 5.884 0 0 1 38.181 11.851 A 23.471 23.471 0 0 1 37.718 11.693 A 29.439 29.439 0 0 1 37.222 11.514 Q 37.148 11.484 37.061 11.418 A 0.247 0.247 0 0 1 36.973 11.293 A 0.366 0.366 0 0 1 36.958 11.221 A 0.948 0.948 0 0 1 36.96 11.163 Q 36.963 11.108 36.973 11.038 A 2.168 2.168 0 0 1 36.982 10.976 Q 36.997 10.886 37.026 10.734 A 20.846 20.846 0 0 1 37.046 10.635 Q 37.086 10.436 37.153 10.172 A 16.877 16.877 0 0 1 37.222 9.91 Q 37.318 9.553 37.405 9.332 A 2.396 2.396 0 0 1 37.441 9.243 Q 37.573 8.994 37.881 8.774 Q 38.082 8.609 38.939 8.282 A 26.121 26.121 0 0 1 39.39 8.115 A 6.049 6.049 0 0 1 40.287 7.876 Q 41.24 7.691 42.586 7.665 A 23.429 23.429 0 0 1 43.037 7.661 Q 48.229 7.661 49.323 11.65 A 9.138 9.138 0 0 1 49.614 14.063 Z M 58.198 9.727 L 58.198 10.811 L 58.257 10.811 A 5.925 5.925 0 0 1 58.989 9.373 Q 60.136 7.764 62.212 7.764 A 6.044 6.044 0 0 1 62.448 7.768 Q 62.659 7.776 62.813 7.8 Q 63.039 7.836 63.129 7.864 A 0.472 0.472 0 0 1 63.135 7.866 A 0.324 0.324 0 0 1 63.262 7.941 Q 63.322 8 63.343 8.093 A 0.498 0.498 0 0 1 63.355 8.203 L 63.355 11.733 A 0.561 0.561 0 0 1 63.343 11.855 Q 63.275 12.157 62.827 11.982 A 1.93 1.93 0 0 0 62.704 11.937 Q 62.571 11.892 62.384 11.844 A 7.33 7.33 0 0 0 62.322 11.829 Q 62.024 11.756 61.517 11.749 A 7.992 7.992 0 0 0 61.406 11.748 Q 59.897 11.748 59.048 12.854 A 3.816 3.816 0 0 0 58.414 14.148 Q 58.198 14.905 58.198 15.864 L 58.198 22.251 A 1.653 1.653 0 0 1 58.186 22.46 Q 58.157 22.685 58.06 22.809 A 0.403 0.403 0 0 1 58.015 22.859 Q 57.848 23.013 57.468 23.026 A 2.122 2.122 0 0 1 57.393 23.027 L 54.375 23.027 Q 53.936 23.027 53.752 22.859 Q 53.569 22.69 53.569 22.251 L 53.569 9.976 A 1.36 1.36 0 0 1 53.584 9.772 Q 53.615 9.565 53.716 9.434 Q 54.023 9.023 54.456 8.599 Q 54.827 8.234 55.344 7.825 A 16.201 16.201 0 0 1 55.518 7.69 A 0.778 0.778 0 0 1 55.627 7.621 A 0.577 0.577 0 0 1 55.752 7.573 Q 55.844 7.55 55.918 7.545 A 0.587 0.587 0 0 1 55.957 7.544 A 0.622 0.622 0 0 1 56.207 7.598 A 0.883 0.883 0 0 1 56.367 7.69 A 16.596 16.596 0 0 1 56.993 8.204 Q 57.584 8.716 57.924 9.132 A 3.709 3.709 0 0 1 58.066 9.316 A 0.659 0.659 0 0 1 58.198 9.701 A 0.816 0.816 0 0 1 58.198 9.727 Z M 100.737 5.874 L 100.093 5.874 A 3.569 3.569 0 0 0 99.648 5.9 Q 99.166 5.96 98.901 6.165 A 0.842 0.842 0 0 0 98.774 6.284 Q 98.459 6.652 98.427 7.489 A 5.143 5.143 0 0 0 98.423 7.69 L 98.423 17.358 A 4.346 4.346 0 0 0 98.448 17.841 Q 98.516 18.453 98.774 18.765 Q 99.126 19.189 100.093 19.189 L 100.767 19.189 A 10.271 10.271 0 0 0 102.672 19.024 Q 104.466 18.685 105.623 17.651 Q 107.281 16.17 107.341 12.594 A 16.186 16.186 0 0 0 107.344 12.319 A 13.229 13.229 0 0 0 107.267 10.846 Q 107.099 9.348 106.56 8.386 Q 105.776 6.987 104.297 6.431 A 8.134 8.134 0 0 0 102.778 6.031 Q 101.842 5.874 100.737 5.874 Z M 149.502 13.154 L 149.502 16.333 Q 149.502 17.754 150.234 18.706 A 2.368 2.368 0 0 0 151.729 19.599 A 3.628 3.628 0 0 0 152.402 19.658 A 3.615 3.615 0 0 0 153.468 19.509 A 2.766 2.766 0 0 0 154.856 18.552 A 3.622 3.622 0 0 0 155.448 17.407 Q 155.728 16.538 155.728 15.352 Q 155.728 11.396 152.476 11.396 A 5.38 5.38 0 0 0 151.758 11.441 Q 151.388 11.491 151.09 11.597 A 2.03 2.03 0 0 0 150.439 11.96 Q 149.828 12.484 149.544 13.064 A 2.568 2.568 0 0 0 149.502 13.154 Z M 168.252 13.154 L 168.252 16.333 Q 168.252 17.754 168.984 18.706 A 2.368 2.368 0 0 0 170.479 19.599 A 3.628 3.628 0 0 0 171.152 19.658 A 3.615 3.615 0 0 0 172.218 19.509 A 2.766 2.766 0 0 0 173.606 18.552 A 3.622 3.622 0 0 0 174.198 17.407 Q 174.478 16.538 174.478 15.352 Q 174.478 11.396 171.226 11.396 A 5.38 5.38 0 0 0 170.508 11.441 Q 170.138 11.491 169.84 11.597 A 2.03 2.03 0 0 0 169.189 11.96 Q 168.578 12.484 168.294 13.064 A 2.568 2.568 0 0 0 168.252 13.154 Z M 132.349 6.65 L 132.261 6.65 A 17.193 17.193 0 0 0 131.348 8.31 Q 130.897 9.241 130.488 10.327 A 43.42 43.42 0 0 0 129.097 14.722 L 135.454 14.722 Q 134.839 12.466 134.033 10.327 A 31.846 31.846 0 0 0 133.314 8.571 Q 132.843 7.516 132.349 6.65 Z M 45.073 17.886 L 45.073 16.26 A 21.146 21.146 0 0 0 44.008 16.285 Q 42.751 16.348 42.019 16.575 A 4.688 4.688 0 0 0 41.513 16.761 Q 41 16.988 40.746 17.287 A 1.171 1.171 0 0 0 40.664 17.395 A 1.93 1.93 0 0 0 40.327 18.486 A 2.128 2.128 0 0 0 40.368 18.918 Q 40.473 19.427 40.855 19.666 Q 41.382 19.995 42.158 19.995 A 4.206 4.206 0 0 0 42.936 19.928 Q 43.372 19.846 43.711 19.664 A 2.048 2.048 0 0 0 44.194 19.307 A 4.097 4.097 0 0 0 44.656 18.762 Q 44.896 18.419 45.018 18.066 A 2.377 2.377 0 0 0 45.073 17.886 Z" vector-effect="non-scaling-stroke"/></g></svg>