<?xml version="1.0" standalone="no"?>
<!DOCTYPE svg PUBLIC "-//W3C//DTD SVG 20010904//EN"
 "http://www.w3.org/TR/2001/REC-SVG-20010904/DTD/svg10.dtd">
<svg version="1.0" xmlns="http://www.w3.org/2000/svg"
 width="500.000000pt" height="500.000000pt" viewBox="0 0 500.000000 500.000000"
 preserveAspectRatio="xMidYMid meet">
<metadata>
Created by potrace 1.14, written by Peter Selinger 2001-2017
</metadata>
<g transform="translate(0.000000,500.000000) scale(0.100000,-0.100000)"
fill="#000000" stroke="none">
<path d="M1709 4553 c-52 -13 -119 -38 -119 -45 0 -4 -3 -7 -7 -6 -13 3 -80
-29 -87 -41 -4 -6 -12 -9 -17 -6 -5 4 -9 2 -9 -3 0 -6 -11 -13 -25 -16 -14 -4
-25 -11 -25 -16 0 -6 -5 -10 -11 -10 -13 0 -171 -107 -216 -147 -18 -15 -53
-46 -78 -68 -82 -71 -94 -83 -88 -89 4 -3 1 -6 -6 -6 -8 0 -31 -19 -53 -42
-21 -24 -51 -56 -66 -73 -78 -85 -233 -317 -293 -440 -19 -38 -37 -72 -42 -73
-4 -2 -5 -8 -1 -13 3 -5 0 -9 -7 -9 -7 0 -10 -3 -6 -6 3 -3 -8 -35 -23 -70
-16 -35 -27 -64 -24 -64 2 0 -2 -13 -11 -30 -8 -16 -15 -32 -15 -35 0 -3 0 -6
-1 -7 0 -2 -2 -10 -4 -18 -2 -8 -11 -40 -20 -70 -9 -30 -17 -65 -18 -77 -1
-13 -4 -23 -7 -23 -4 0 -7 -6 -7 -12 -4 -54 -13 -101 -22 -111 -6 -8 -6 -18
-1 -27 5 -8 7 -17 5 -20 -7 -11 -18 -121 -19 -190 -1 -36 -5 -71 -10 -78 -4
-6 -3 -12 2 -12 4 0 6 -22 2 -50 -4 -28 -4 -50 -1 -50 3 0 7 -30 7 -68 2 -59
10 -167 14 -167 1 0 3 -16 6 -35 2 -19 7 -48 10 -65 3 -16 7 -41 8 -55 4 -37
53 -211 73 -260 3 -8 7 -22 9 -30 3 -17 7 -24 74 -165 111 -231 261 -433 472
-631 62 -58 206 -171 256 -200 17 -10 32 -22 32 -27 0 -4 3 -6 8 -3 4 2 26 -9
50 -25 23 -16 45 -29 48 -29 3 0 19 -9 35 -21 16 -11 29 -17 29 -14 0 3 13 -3
29 -14 15 -11 31 -18 35 -14 3 3 6 0 6 -7 0 -7 3 -11 6 -7 3 3 21 -3 41 -14
19 -11 42 -20 51 -22 9 -1 22 -5 27 -8 6 -4 24 -10 40 -14 17 -5 32 -9 35 -10
3 -1 32 -7 65 -14 33 -8 80 -20 105 -28 25 -8 59 -16 75 -19 56 -7 80 -11 100
-17 11 -3 42 -8 68 -11 27 -3 53 -8 58 -11 5 -4 9 -3 9 2 0 4 11 8 25 8 14 0
25 -3 25 -7 0 -8 21 -5 39 6 7 5 16 4 20 -1 8 -12 111 -13 111 -1 0 5 4 7 9 4
5 -3 11 0 14 8 6 14 69 17 83 3 11 -11 72 -8 76 4 4 12 79 20 93 9 19 -14 46
-20 39 -9 -4 8 -1 8 13 0 14 -7 23 -7 30 0 8 8 13 8 17 0 5 -7 15 -7 32 -1 15
6 23 6 19 1 -3 -6 10 -5 31 0 20 6 42 8 50 5 7 -3 15 -2 18 2 2 4 27 6 55 6
28 -1 51 2 51 7 0 4 8 8 18 7 28 0 75 12 106 27 16 8 32 12 37 9 5 -3 9 0 9 5
0 6 3 10 8 9 4 -1 24 6 46 15 21 9 40 17 42 17 10 0 159 76 162 83 2 4 7 5 12
2 5 -3 14 0 22 7 7 7 31 22 53 33 22 11 44 26 48 33 4 6 14 12 22 12 8 0 19 8
24 18 6 9 11 13 11 9 0 -9 79 49 92 68 4 5 8 7 8 4 0 -15 256 233 315 305 17
20 42 50 57 66 15 17 25 30 23 30 -3 0 3 8 12 18 10 10 25 29 33 42 8 12 21
28 28 36 6 7 12 15 12 19 0 3 16 29 35 58 19 28 35 57 35 64 0 7 4 13 9 13 8
0 30 46 37 79 1 8 7 17 13 20 5 3 13 19 16 34 4 15 11 27 16 27 5 0 8 3 7 8
-1 4 4 23 11 42 8 19 15 37 16 40 1 3 7 18 13 33 7 16 12 33 12 38 0 5 5 9 11
9 5 0 8 4 4 10 -3 5 1 25 9 45 8 19 12 35 9 35 -3 0 0 7 7 15 6 8 9 19 5 25
-3 5 -2 10 3 10 5 0 9 6 10 13 3 31 11 82 13 85 1 1 3 7 4 12 1 6 3 11 5 13
15 19 16 160 0 202 -19 51 -74 125 -93 125 -10 0 -16 4 -13 8 9 15 -54 30
-130 30 -79 0 -87 -3 -242 -74 -41 -19 -78 -34 -83 -34 -5 0 -9 -5 -9 -10 0
-6 -3 -9 -7 -8 -5 1 -28 -7 -53 -19 -48 -24 -119 -54 -135 -59 -5 -1 -29 -9
-52 -18 -24 -8 -43 -13 -43 -9 0 3 -7 0 -15 -7 -8 -7 -15 -9 -15 -6 0 4 -8 3
-17 -2 -48 -25 -314 -40 -473 -27 -82 7 -165 19 -165 25 0 1 -13 4 -30 6 -16
3 -50 12 -75 20 -25 9 -52 17 -60 19 -19 4 -163 67 -170 75 -3 3 -25 16 -50
29 -25 13 -53 31 -62 39 -10 8 -18 11 -18 6 0 -5 -7 0 -15 10 -8 11 -15 16
-15 12 0 -9 -87 59 -118 94 -13 14 -25 24 -28 23 -2 -2 -43 36 -91 84 -49 48
-82 83 -74 79 8 -5 -5 11 -29 36 -23 25 -41 49 -40 53 1 4 -2 11 -7 14 -8 6
-93 138 -93 145 0 2 -10 25 -22 52 -12 27 -21 52 -20 57 1 4 -2 7 -7 7 -4 0
-14 20 -21 45 -7 25 -17 48 -21 51 -5 3 -9 11 -9 19 0 8 -5 26 -12 42 -12 31
-14 36 -22 78 -21 108 -26 147 -21 155 3 6 0 10 -7 10 -9 0 -9 3 2 10 10 7 11
13 5 18 -7 4 -10 55 -9 132 1 142 7 204 28 310 14 70 19 91 31 140 3 11 7 29
10 40 11 44 13 58 15 96 1 21 1 41 0 44 0 3 -2 21 -4 40 -7 92 -82 175 -176
196 -40 8 -100 12 -121 7z m-318 -918 c1 -44 4 -83 6 -88 2 -4 6 -37 8 -75 2
-37 14 -114 26 -172 12 -58 23 -114 24 -125 2 -11 4 -20 5 -20 1 0 3 -7 5 -15
10 -44 34 -124 35 -115 0 6 11 -20 24 -57 42 -119 159 -335 220 -407 13 -15
15 -21 6 -16 -8 4 -6 -1 5 -12 11 -12 31 -35 45 -53 14 -17 33 -41 43 -52 9
-12 17 -25 17 -30 0 -4 7 -8 15 -8 8 0 15 -5 15 -11 0 -13 157 -169 171 -169
5 0 7 -4 4 -10 -3 -5 -2 -10 3 -10 5 0 23 -14 41 -30 17 -17 31 -28 31 -25 0
3 8 -3 18 -12 24 -24 78 -65 110 -83 14 -8 34 -22 44 -30 10 -8 21 -14 24 -12
2 1 12 -4 20 -13 9 -8 20 -13 25 -10 5 4 9 1 9 -5 0 -6 19 -20 43 -30 23 -11
46 -23 51 -27 4 -4 11 -8 15 -8 5 0 37 -13 72 -29 91 -41 94 -42 198 -76 51
-16 102 -30 112 -30 10 0 20 -4 24 -9 3 -6 13 -10 23 -10 27 1 67 -7 79 -14 6
-4 15 -3 18 3 4 7 11 8 18 2 7 -6 28 -12 47 -15 19 -3 46 -8 60 -11 21 -5 181
-17 215 -17 82 0 265 14 340 26 22 4 54 8 70 10 17 2 31 5 33 6 1 1 10 2 20 3
9 1 22 5 28 9 19 11 24 -19 8 -42 -8 -11 -12 -21 -9 -21 3 0 -8 -13 -24 -29
-16 -16 -27 -31 -25 -34 3 -2 -20 -30 -49 -61 -30 -31 -53 -56 -50 -56 2 0
-18 -22 -45 -49 -28 -27 -48 -52 -44 -55 3 -3 1 -6 -4 -6 -6 0 -26 -15 -46
-32 -19 -18 -48 -42 -63 -53 -15 -11 -40 -31 -56 -43 -16 -13 -29 -20 -29 -15
0 4 -4 3 -8 -3 -9 -12 -85 -63 -127 -84 -16 -8 -32 -18 -35 -21 -5 -6 -98 -51
-110 -53 -3 -1 -21 -9 -40 -18 -19 -9 -44 -18 -55 -20 -11 -1 -26 -9 -33 -16
-8 -7 -18 -10 -23 -6 -5 3 -26 0 -47 -7 -20 -7 -40 -14 -44 -15 -5 -1 -9 -2
-10 -3 -2 -2 -14 -4 -28 -7 -14 -2 -47 -9 -73 -14 -125 -26 -368 -30 -490 -9
-39 7 -75 12 -79 11 -5 -1 -8 2 -8 6 0 4 -8 8 -17 8 -22 1 -115 20 -120 24 -2
2 -7 4 -13 5 -5 1 -13 4 -17 5 -5 1 -11 2 -15 1 -5 0 -8 4 -8 10 0 5 -5 7 -10
4 -5 -3 -16 -3 -22 2 -7 4 -19 8 -27 10 -8 1 -18 8 -22 15 -5 7 -9 9 -9 4 0
-4 -11 -1 -25 8 -14 9 -25 14 -25 11 0 -8 -119 55 -126 66 -3 5 -10 7 -15 4
-5 -4 -9 -2 -9 3 0 7 -50 36 -58 33 -1 -1 -8 3 -15 9 -30 24 -148 110 -152
110 -7 0 -71 59 -154 141 -82 82 -143 149 -135 149 2 0 -4 10 -16 22 -25 27
-105 160 -102 171 1 4 -2 7 -8 7 -6 0 -9 3 -8 8 1 4 -10 31 -25 61 -15 30 -27
61 -27 68 0 7 -5 13 -12 13 -6 0 -8 3 -5 7 4 3 0 17 -8 30 -9 13 -13 23 -10
23 3 0 -2 16 -10 36 -8 20 -17 46 -20 58 -2 11 -9 39 -15 61 -5 22 -13 63 -16
90 -3 28 -7 57 -10 64 -16 47 -22 267 -10 376 4 39 9 86 11 105 2 19 7 45 10
58 9 39 15 66 20 96 3 15 12 44 20 62 8 19 11 34 8 34 -3 0 -1 6 5 13 6 6 13
29 17 50 4 20 11 37 16 37 4 0 13 18 19 40 6 22 15 40 21 40 6 0 8 4 4 9 -3 5
-1 12 5 16 6 4 8 11 5 16 -4 5 -1 9 4 9 6 0 11 4 11 9 0 16 81 151 91 151 5 0
8 3 7 8 -2 4 18 36 42 71 25 35 50 71 55 79 6 9 16 22 23 30 6 7 12 18 12 23
0 5 4 8 9 7 5 -2 8 1 8 5 -2 8 45 38 50 33 1 -1 3 -37 4 -81z"/>
</g>
</svg>
