<?xml version="1.0" standalone="no"?>
<!DOCTYPE svg PUBLIC "-//W3C//DTD SVG 20010904//EN"
 "http://www.w3.org/TR/2001/REC-SVG-20010904/DTD/svg10.dtd">
<svg version="1.0" xmlns="http://www.w3.org/2000/svg"
 width="500.000000pt" height="500.000000pt" viewBox="0 0 500.000000 500.000000"
 preserveAspectRatio="xMidYMid meet">
<metadata>
Created by potrace 1.14, written by Peter Selinger 2001-2017
</metadata>
<g transform="translate(0.000000,500.000000) scale(0.100000,-0.100000)"
fill="#000000" stroke="none">
<path d="M1673 4540 c-34 -9 -69 -23 -78 -30 -8 -7 -15 -10 -15 -7 0 3 -19 -5
-42 -19 -24 -13 -62 -33 -85 -45 -24 -12 -43 -25 -43 -30 0 -5 -9 -9 -19 -9
-11 0 -21 -3 -23 -7 -5 -12 -66 -53 -77 -53 -5 0 -17 -10 -25 -22 -9 -12 -16
-19 -16 -15 0 7 -27 -13 -62 -45 -10 -10 -23 -18 -29 -18 -5 0 -7 -4 -4 -10 3
-5 1 -10 -5 -10 -6 0 -29 -18 -51 -40 -22 -22 -43 -40 -48 -40 -4 0 -14 -11
-21 -25 -7 -14 -16 -23 -18 -20 -6 5 -52 -46 -52 -58 0 -5 -4 -5 -10 -2 -5 3
-10 2 -10 -4 0 -5 -13 -22 -28 -38 -40 -40 -118 -145 -182 -243 -30 -47 -59
-88 -65 -92 -5 -4 -6 -8 -1 -8 5 0 -1 -11 -14 -25 -13 -14 -21 -25 -17 -25 5
0 -44 -101 -69 -141 -4 -8 -9 -20 -10 -27 -2 -8 -10 -30 -20 -50 -9 -20 -17
-43 -17 -49 0 -7 -4 -13 -9 -13 -4 0 -7 -3 -6 -7 1 -5 -8 -39 -21 -78 -13 -38
-25 -79 -28 -90 -2 -11 -6 -29 -8 -40 -3 -11 -8 -31 -11 -45 -30 -125 -41
-216 -49 -390 -2 -52 -5 -97 -6 -100 -1 -3 -1 -7 -1 -10 0 -3 3 -59 7 -125 3
-66 9 -133 11 -150 3 -16 7 -43 9 -60 1 -16 6 -43 10 -60 3 -16 8 -41 10 -53
6 -39 27 -126 34 -137 3 -5 7 -19 8 -30 3 -18 9 -36 29 -90 4 -11 8 -27 10
-35 7 -37 144 -310 155 -310 6 0 8 -4 5 -9 -3 -5 1 -14 9 -21 8 -7 15 -17 15
-22 0 -14 136 -200 152 -206 4 -2 6 -8 2 -13 -3 -5 2 -9 10 -9 9 0 16 -4 16
-10 0 -5 27 -38 60 -72 33 -35 60 -66 60 -70 0 -5 6 -8 14 -8 8 0 18 -9 21
-21 4 -11 9 -18 12 -16 2 3 22 -12 44 -34 22 -22 76 -67 122 -100 45 -33 90
-67 100 -75 9 -7 17 -10 17 -6 0 4 6 0 13 -8 7 -8 28 -23 47 -32 19 -10 44
-24 55 -30 60 -39 96 -58 110 -58 8 0 15 -4 15 -8 0 -6 20 -17 70 -37 76 -30
237 -75 271 -75 14 0 29 -4 35 -10 5 -5 21 -11 34 -14 14 -2 25 -5 25 -6 0 -1
18 -3 40 -6 41 -4 80 -11 80 -14 0 -2 37 -9 83 -15 24 -2 47 -7 52 -10 5 -3
11 -1 15 5 4 6 10 8 14 5 12 -7 192 -14 207 -8 8 3 11 9 8 14 -6 10 -3 11 54
14 23 1 45 -2 48 -6 9 -15 64 -10 70 6 5 11 17 13 52 9 26 -3 53 -6 60 -6 6
-1 12 -4 12 -8 0 -8 60 -3 68 4 2 3 14 1 27 -4 13 -5 26 -6 29 -2 4 3 23 7 44
9 114 8 149 12 172 18 14 3 35 8 47 11 12 2 35 10 50 16 16 6 36 12 45 13 10
1 23 7 30 12 7 5 40 20 73 33 89 36 264 127 277 145 5 6 8 6 8 1 0 -6 7 -1 15
10 8 10 15 16 15 11 0 -4 29 15 65 43 35 27 66 50 68 50 14 0 271 250 322 314
17 20 42 50 57 66 15 17 25 30 23 30 -3 0 3 9 12 19 39 42 137 192 142 216 1
6 8 17 15 25 7 8 25 44 41 80 15 36 32 68 37 71 5 3 9 9 8 13 -1 4 4 21 11 39
6 18 12 34 13 37 1 3 4 10 7 15 5 9 31 80 34 95 8 34 37 116 46 126 9 11 8 14
-1 14 -10 0 -10 3 0 15 7 8 10 21 7 29 -3 8 -3 17 1 21 4 4 8 11 8 16 1 5 2
10 4 12 10 12 20 147 11 147 -3 0 -7 11 -8 25 -4 46 -6 55 -15 55 -4 0 -8 6
-8 13 0 19 -59 87 -76 87 -8 0 -14 4 -14 8 0 18 -65 30 -138 27 -95 -5 -102
-6 -102 -18 0 -6 -3 -8 -6 -4 -4 3 -21 -1 -38 -10 -17 -10 -34 -16 -38 -15 -5
1 -8 -3 -8 -9 0 -5 -4 -8 -9 -4 -5 3 -12 1 -16 -5 -4 -6 -11 -8 -16 -5 -5 4
-9 1 -9 -5 0 -6 -4 -8 -10 -5 -5 3 -10 2 -10 -3 0 -6 -12 -13 -27 -17 -15 -3
-31 -11 -34 -16 -3 -6 -12 -11 -20 -13 -8 -1 -25 -8 -39 -16 -14 -8 -27 -15
-30 -15 -6 -2 -57 -22 -85 -34 -59 -25 -77 -31 -85 -26 -5 3 -11 1 -14 -4 -9
-14 -126 -39 -221 -47 -87 -7 -282 -7 -340 1 -27 4 -63 8 -80 10 -16 2 -31 4
-32 5 -3 3 -8 4 -48 14 -46 11 -138 37 -155 43 -8 4 -18 7 -22 7 -3 1 -10 4
-14 9 -4 4 -16 7 -26 7 -10 0 -18 5 -18 12 0 6 -3 9 -6 5 -5 -5 -32 8 -129 63
-16 10 -46 26 -65 36 -19 11 -39 25 -43 32 -4 6 -15 12 -22 12 -8 0 -15 5 -15
10 0 6 -6 10 -14 10 -8 0 -17 7 -20 16 -3 8 -10 13 -15 9 -5 -3 -12 4 -16 15
-3 11 -11 20 -16 20 -18 0 -216 209 -267 283 -28 41 -52 79 -52 84 0 5 -9 19
-20 31 -12 12 -18 22 -16 22 3 0 -3 17 -14 38 -18 36 -41 92 -42 102 0 3 -5
11 -11 19 -6 7 -12 20 -13 29 -2 9 -7 25 -12 37 -6 11 -17 38 -25 60 -14 36
-19 58 -33 145 -25 147 -22 429 6 554 11 52 22 107 24 126 1 9 4 20 7 25 6 9
23 97 32 158 2 15 0 30 -5 33 -4 3 -6 10 -2 15 7 12 -17 99 -28 99 -4 0 -8 7
-8 15 0 8 -4 15 -10 15 -5 0 -10 6 -10 13 0 8 -11 19 -25 25 -14 6 -25 16 -25
22 0 6 -4 9 -9 5 -5 -3 -12 -1 -15 4 -6 9 -61 21 -116 26 -14 1 -53 -6 -87
-15z m-282 -915 c1 -44 6 -88 11 -97 4 -9 4 -19 -1 -23 -6 -3 -6 -16 -1 -33 5
-15 12 -49 15 -77 6 -50 9 -69 19 -115 32 -146 40 -177 48 -187 5 -7 7 -17 4
-22 -4 -5 -1 -13 5 -16 5 -4 8 -13 5 -21 -3 -8 -2 -14 3 -14 5 0 14 -20 21
-45 7 -25 17 -45 21 -45 5 0 8 -3 7 -7 -1 -5 4 -21 10 -36 7 -16 12 -33 12
-38 0 -5 5 -9 11 -9 6 0 9 -7 5 -15 -3 -8 -2 -15 3 -15 4 0 16 -19 27 -42 10
-24 22 -47 26 -53 16 -20 108 -166 108 -170 0 -6 28 -40 58 -71 12 -13 22 -26
22 -29 0 -20 304 -318 314 -307 4 3 6 1 6 -5 0 -5 22 -25 50 -44 27 -19 50
-38 50 -42 0 -5 5 -5 10 -2 6 3 10 1 10 -4 0 -6 4 -11 10 -11 5 0 19 -8 30
-17 11 -10 23 -17 26 -15 2 1 12 -4 20 -13 9 -8 20 -13 25 -10 5 4 9 1 9 -5 0
-5 17 -18 38 -27 20 -10 45 -24 55 -32 9 -8 17 -11 17 -8 0 3 26 -7 58 -22 31
-16 69 -31 85 -35 15 -3 27 -11 27 -17 0 -6 5 -7 10 -4 6 3 16 3 23 -2 6 -4
18 -9 25 -10 45 -10 154 -44 179 -56 13 -6 26 -8 29 -5 3 4 20 2 37 -4 31 -9
46 -12 117 -22 19 -3 49 -7 65 -10 17 -3 58 -8 93 -10 35 -2 66 -7 69 -10 3
-3 12 -1 19 5 8 7 14 7 18 0 4 -7 15 -7 31 -1 15 6 27 6 30 0 3 -5 11 -7 18
-5 10 4 114 13 170 14 11 1 15 6 11 12 -4 8 -1 8 12 2 17 -8 39 -9 54 -3 8 3
42 9 80 14 19 3 50 8 69 11 41 8 58 -11 34 -37 -9 -10 -13 -18 -10 -18 4 0 -1
-8 -11 -18 -9 -10 -24 -29 -32 -41 -17 -26 -84 -103 -146 -168 -23 -24 -39
-43 -36 -43 3 0 -8 -11 -26 -23 -17 -13 -29 -27 -25 -30 3 -4 1 -7 -5 -7 -6 0
-26 -14 -44 -30 -18 -17 -45 -36 -60 -42 -15 -7 -24 -16 -22 -20 3 -4 1 -8 -4
-8 -5 0 -32 -15 -60 -34 -27 -19 -53 -32 -56 -29 -3 4 -6 1 -6 -5 0 -7 -6 -12
-14 -12 -7 0 -19 -7 -26 -15 -7 -8 -21 -15 -30 -15 -10 0 -20 -4 -22 -8 -5
-13 -158 -83 -168 -77 -5 3 -12 0 -17 -7 -4 -7 -17 -14 -28 -16 -11 -1 -28 -3
-37 -4 -10 -1 -18 -5 -18 -9 0 -4 -8 -6 -17 -4 -10 1 -26 -2 -36 -7 -10 -5
-31 -12 -45 -14 -15 -3 -45 -9 -67 -14 -138 -31 -447 -31 -552 -1 -17 5 -34 7
-37 3 -3 -3 -6 0 -6 7 0 7 -4 10 -9 7 -4 -3 -23 -1 -42 4 -19 6 -47 13 -63 16
-16 2 -34 8 -40 12 -6 3 -19 8 -28 9 -10 2 -37 11 -60 22 -125 56 -163 72
-165 69 -1 -2 -13 8 -27 21 -14 14 -26 21 -26 17 0 -4 -20 7 -44 24 -25 16
-49 30 -55 30 -6 0 -11 5 -11 12 0 6 -3 9 -6 5 -6 -5 -11 -2 -47 28 -7 6 -28
22 -47 35 -47 33 -81 63 -159 138 -35 34 -69 62 -74 62 -6 0 -8 3 -4 6 3 3 -4
16 -16 29 -38 39 -65 73 -81 102 -8 15 -15 24 -16 18 0 -5 -6 1 -13 15 -8 14
-24 43 -36 65 -57 100 -121 236 -121 255 0 6 -5 10 -11 10 -5 0 -8 3 -5 8 2 4
-4 31 -14 60 -10 28 -16 52 -14 52 3 0 2 6 -3 12 -4 7 -8 18 -9 23 -1 6 -5 24
-8 40 -11 50 -19 99 -31 205 -10 75 -10 243 -1 310 4 30 8 70 8 88 1 17 4 32
7 32 3 0 7 12 7 28 1 15 4 38 8 52 3 14 9 38 11 54 3 15 12 44 20 62 8 19 11
34 8 34 -3 0 0 7 7 15 7 8 9 15 5 15 -4 0 -2 7 5 15 7 8 10 15 7 15 -3 0 5 21
19 46 13 25 18 42 12 38 -7 -4 -2 5 11 19 14 15 21 27 17 27 -5 0 -3 6 3 13 6
8 8 17 4 20 -3 4 -1 7 5 7 7 0 12 4 12 9 0 6 17 38 37 73 21 35 36 66 35 71
-1 4 2 7 6 7 5 0 34 38 66 85 32 46 70 98 86 115 15 16 25 30 22 30 -3 0 3 6
14 14 10 8 22 12 26 8 3 -4 8 -43 9 -87z"/>
</g>
</svg>
